#!OML:ASF F:\VICON\USERDATA\INSTALL\rory3\rory3.ASF
:FULLY-SPECIFIED
:DEGREES
27
root -0.1576041916259201 18.142933523129212 6.1012654310130685 -4.821870929270489 -0.992648579670508 -5.316509772852607
lfemur -22.680282959662204 6.901573271444159 -13.609144062457535
ltibia 65.55584337197726
lfoot -4.416939590959614 -7.922228225053115
ltoes -4.342820166343017
rfemur -2.9537451078558217 5.207349857466703 32.910142887014416
rtibia 28.13009612391943
rfoot -13.788460148485836 -4.6995974569297925
rtoes 8.318060796282596
lowerback 9.93045196206058 -0.30850355429960735 3.8907663788748246
upperback 0.3436542222514959 0.1282794256425378 2.1163718871111037
thorax -4.708065665746785 -0.005797898580280403 0.7848482598295057
lowerneck -15.908711838575098 -2.930264889056272 -1.823086700770987
upperneck 21.077102239915074 -3.717559658408729 0.026170790625931972
head 9.328606304634684 -1.853992518541002 -0.16391311388183488
lclavicle 1.4720609767409538e-16 2.3715436009217477e-16
lhumerus -30.367983193911684 2.863009323583871 81.1395075177891
lradius 26.206220854412635
lwrist 6.289645590872706
lhand -28.427109807031076 19.301846883754433
lfingers 7.12502
lthumb -1.7006328432378004 49.4518310996321
rclavicle 1.4631822149182268e-16 2.3649681289721605e-16
rhumerus -26.14957877380115 -13.579643038001647 -81.60412798549285
rradius 26.386550524388955
rwrist 2.7865073251112014
rhand -17.52755659865724 21.653391414922524
rfingers 7.12502
rthumb 8.448232803004505 -8.017319938711957
28
root -0.14378444996014506 18.07542755278064 6.92974487082348 -4.411957919740992 -1.9304776229651561 -5.898631083789042
lfemur -26.865331897971004 6.674902488179308 -13.44917088464754
ltibia 58.89261462914476
lfoot -7.324059820864202 -3.9045475023814715
ltoes -5.8118777208862245
rfemur -0.29365864349161264 4.975461850956066 33.83284384920444
rtibia 28.718079929263993
rfoot -16.32240343581673 -5.017856876593639
rtoes 7.169648871955317
lowerback 10.119868190379963 0.1483776070520492 4.858843200720258
upperback 0.29295682482465635 0.8575420537915451 1.9707575046942878
thorax -4.919675374056663 0.3599058597876232 -0.00886769956430511
lowerneck -16.045294088296338 -2.96721680125442 -1.7972843147597388
upperneck 20.81215555735222 -3.8185634730146636 0.13424209191250425
head 9.261080659568455 -1.8811384024046784 -0.16638345606064367
lclavicle 1.4830224291951157e-16 2.3800122300006943e-16
lhumerus -31.934061647103757 3.6771030185915254 80.93011696123014
lradius 25.857518381316456
lwrist 7.8508549149012
lhand -29.372399476417023 17.904123874935
lfingers 7.12502
lthumb -2.426723110547926 48.13017793273602
rclavicle 1.4540601462145196e-16 2.357954125191859e-16
rhumerus -23.77160060963618 -9.595564632279967 -83.28644559760879
rradius 29.180307431117463
rwrist 0.23843873183834763
rhand -17.824722703220175 22.00597187094001
rfingers 7.12502
rthumb 8.06834710324448 -7.87513562583429
29
root -0.11552540328155109 18.027175317825563 7.573306519997534 -3.6241554566906835 -2.6106250057482843 -6.571748215496446
lfemur -29.081756499292347 5.465210081032944 -12.916497203761695
ltibia 47.95211897324716
lfoot -7.682115362451144 0.3711335943818308
ltoes -4.329334369595563
rfemur 2.7100854410084345 4.991482425833507 34.45080284091779
rtibia 28.08450656300551
rfoot -18.17832330782164 -5.422779783608307
rtoes 6.588045866247122
lowerback 10.044338560158069 0.5288323038473328 5.8984342204127
upperback 0.19460058269159763 1.5309787893816598 1.953829260898552
thorax -5.002310945693317 0.6795315654824183 -0.7714997399967367
lowerneck -16.224768755345448 -2.9849877684494963 -1.7625367449422102
upperneck 20.54772317791844 -3.8484935149534243 0.0699302813722551
head 9.207657756515125 -1.890074667966925 -0.19653647864468876
lclavicle 1.4768535187552788e-16 2.375279957959095e-16
lhumerus -32.98472803112655 4.612664578952031 80.69215985790287
lradius 25.222141605385108
lwrist 7.766274071949008
lhand -29.83339615681177 18.455657477544506
lfingers 7.12502
lthumb -2.823782833849056 48.54628172386931
rclavicle 1.4630266743078807e-16 2.3648486504777057e-16
rhumerus -21.36832077524214 -6.756757012620193 -84.21897270152208
rradius 31.49146398639462
rwrist -1.4388096349575
rhand -17.924696300417033 22.202791079089945
rfingers 7.12502
rthumb 7.988967861344182 -7.571383602766748
30
root -0.08029232664203745 18.010327511649642 8.212630993514232 -2.524637914590854 -3.226355944751057 -7.154037087468818
lfemur -29.71451801845263 2.469366239093551 -11.687632082167774
ltibia 33.012528071653094
lfoot -6.213101756777319 3.788415403249152
ltoes -2.534468404103042
rfemur 5.945768369930526 5.204361976890983 34.66799384671094
rtibia 26.310753901058547
rfoot -19.152270617799765 -5.781631432338321
rtoes 4.760956046819181
lowerback 9.383982746746868 0.9344358840186118 6.698650063335812
upperback 0.02080278420684578 2.1990691478454862 1.9368618651782583
thorax -4.857743477440166 1.003185481348817 -1.4807578778072168
lowerneck -16.377511082573065 -3.0114547732469976 -1.7123133088267237
upperneck 20.36013968193436 -3.9023890830176082 0.17467322480565634
head 9.163247633086012 -1.8945784779689003 -0.16643316896971494
lclavicle 1.4672103024970495e-16 2.367860696249819e-16
lhumerus -34.140900681877376 5.877702890023855 80.3732910291682
lradius 24.08859444048846
lwrist 6.570525571719811
lhand -29.700794085577222 18.86376469571695
lfingers 7.12502
lthumb -2.7030843691580997 48.691579668742584
rclavicle 1.4658186482426737e-16 2.36699546277565e-16
rhumerus -19.28505455683301 -5.515278595473799 -84.64286454360038
rradius 32.93405438320628
rwrist -2.360771441252518
rhand -17.992608886792507 22.89131681727433
rfingers 7.12502
rthumb 7.945268681265794 -6.722323547959591
